<?xml version="1.0" encoding="UTF-8" standalone="no"?>
<svg
   viewBox="0 0 350 92"
   width="350px"
   height="92px"
   version="1.1"
   id="svg6"
   sodipodi:docname="ams-logo.svg"
   inkscape:version="1.4 (e7c3feb100, 2024-10-09)"
   xmlns:inkscape="http://www.inkscape.org/namespaces/inkscape"
   xmlns:sodipodi="http://sodipodi.sourceforge.net/DTD/sodipodi-0.dtd"
   xmlns="http://www.w3.org/2000/svg"
   xmlns:svg="http://www.w3.org/2000/svg">
  <defs
     id="defs6" />
  <sodipodi:namedview
     id="namedview6"
     pagecolor="#ffffff"
     bordercolor="#666666"
     borderopacity="1.0"
     inkscape:showpageshadow="2"
     inkscape:pageopacity="0.0"
     inkscape:pagecheckerboard="0"
     inkscape:deskcolor="#d1d1d1"
     inkscape:zoom="5.0542857"
     inkscape:cx="99.81628"
     inkscape:cy="45.901639"
     inkscape:window-width="1920"
     inkscape:window-height="1023"
     inkscape:window-x="0"
     inkscape:window-y="33"
     inkscape:window-maximized="1"
     inkscape:current-layer="svg6" />
  <path
     class="amsLogoSVG blue"
     d="M53.75 24.12c.63-1.73.85-2.06 1.17-2.06.31 0 .52.27 1.16 1.9.79 2 9.06 23.76 12.27 31.78 1.9 4.7 3.42 5.53 4.53 5.84.8.27 1.58.32 2.11.32.32 0 .52.05.52.32 0 .31-.47.42-1.05.42-.79 0-4.63 0-8.26-.1-1-.06-1.58-.06-1.58-.37 0-.2.16-.32.37-.37.31-.1.63-.58.31-1.42l-4.9-12.96c-.1-.2-.2-.32-.47-.32H48.62c-.27 0-.43.16-.52.43l-3.17 9.33a11.2 11.2 0 0 0-.74 3.52c0 1.06 1.1 1.53 2 1.53h.52c.37 0 .53.11.53.32 0 .31-.32.42-.8.42-1.25 0-3.52-.16-4.1-.16-.58 0-3.48.16-5.95.16-.68 0-1-.1-1-.42 0-.2.2-.32.47-.32.36 0 1.1-.05 1.53-.1 2.42-.32 3.47-2.32 4.42-4.97l11.96-32.73Zm5.48 21.1c.27 0 .27-.16.2-.37l-5-14.23c-.26-.78-.52-.78-.79 0l-4.62 14.23c-.11.27 0 .36.15.36zm65.09 10.69c.2 1.9.58 4.85 2.84 5.59 1.53.47 2.9.47 3.43.47.27 0 .43.05.43.27 0 .32-.48.47-1.1.47-1.17 0-6.85-.05-8.8-.2-1.21-.11-1.48-.27-1.48-.52 0-.21.1-.32.36-.37.27-.05.32-.94.21-1.9l-2.53-27.35h-.16l-12.9 27.4c-1.1 2.32-1.26 2.8-1.74 2.8-.36 0-.63-.52-1.63-2.43a895.97 896.81 0 0 1-6.16-12.22c-.47-.95-6.37-13.6-6.95-15.03h-.2l-2.12 24.46c-.04.85-.04 1.8-.04 2.7 0 .78.58 1.47 1.37 1.63.9.2 1.68.27 2 .27.2 0 .42.1.42.27 0 .36-.32.47-.95.47-1.95 0-4.47-.16-4.9-.16-.46 0-3 .16-4.41.16-.52 0-.9-.11-.9-.47 0-.16.27-.27.52-.27.42 0 .79 0 1.58-.16 1.73-.31 1.89-2.38 2.1-4.38l3.8-34.37c.04-.58.26-.94.58-.94.31 0 .52.2.79.79l16.11 33.15 15.48-33.1c.21-.47.43-.84.8-.84.35 0 .51.42.62 1.42l3.53 32.41zm12.74 6.06c-.74-.36-.78-.58-.78-2 0-2.63.2-4.74.26-5.59.05-.58.16-.85.43-.85.31 0 .36.16.36.58 0 .48 0 1.22.16 1.96.78 3.9 4.26 5.37 7.79 5.37 5.05 0 7.52-3.64 7.52-7.01 0-3.64-1.53-5.75-6.06-9.48l-2.37-1.96c-5.59-4.58-6.85-7.85-6.85-11.43 0-5.64 4.22-9.49 10.9-9.49 2.07 0 3.6.21 4.9.53 1 .2 1.42.26 1.84.26.43 0 .53.11.53.37 0 .25-.21 2-.21 5.59 0 .85-.11 1.21-.36 1.21-.32 0-.37-.27-.43-.68a9.06 9.06 0 0 0-.68-2.63c-.31-.57-1.73-2.79-6.58-2.79-3.63 0-6.48 2.27-6.48 6.11 0 3 1.37 4.9 6.42 8.85l1.48 1.17c6.22 4.9 7.7 8.17 7.7 12.38 0 2.16-.85 6.16-4.48 8.74a13.9 13.91 0 0 1-7.94 2.22c-2.48 0-4.9-.36-7.05-1.41z"
     id="path1"
     style="fill:#0057b8;stroke:#0057b8;stroke-width:0.21" />
  <path
     d="M40.98 77.17a1.22 1.22 0 1 0-1.33 2.05 1.22 1.22 0 0 0 1.33-2.05M9.86 52.27a3.78 3.78 0 1 0-6.35-4.11 3.78 3.78 0 0 0 6.35 4.11M13 56.2a3.35 3.35 0 1 0-3.65 5.62A3.35 3.35 0 0 0 13 56.2m5.23 7.34a2.91 2.91 0 1 0-3.17 4.88 2.91 2.91 0 0 0 3.17-4.88m5.93 5.52a2.5 2.5 0 1 0-2.72 4.2 2.5 2.5 0 1 0 2.72-4.2m6.1 3.92a2.07 2.07 0 1 0-2.25 3.49 2.07 2.07 0 0 0 2.25-3.49m5.65 2.48a1.62 1.63 0 0 0-2.27.48c-.5.77-.28 1.79.49 2.27.76.5 1.78.28 2.26-.48.5-.77.28-1.79-.48-2.27M7.74 42.14a4.2 4.21 0 1 0-7.07-4.57 4.2 4.21 0 0 0 7.07 4.57m-5.47-9.9a4.63 4.63 0 1 0 5.04-7.76 4.63 4.63 0 0 0-5.04 7.77"
     class="amsLogoSVG blue"
     id="path2"
     style="fill:#0057b8;stroke:#0057b8;stroke-width:0.21" />
  <path
     d="M27.22 65.4a1.2 1.2 0 0 0-1.51-.8 1.2 1.2 0 0 0-.8 1.5 1.22 1.22 0 0 0 2.32-.7m-7.86-39.12a3.78 3.79 0 1 0-2.22-7.24 3.78 3.79 0 0 0 2.22 7.24m-.11 5.04a3.34 3.35 0 1 0-6.4 1.95 3.34 3.35 0 0 0 6.4-1.95m-.7 9a2.92 2.92 0 1 0-5.59 1.72 2.92 2.92 0 0 0 5.59-1.73m1 8.04a2.5 2.5 0 1 0-1.67 3.1 2.5 2.5 0 0 0 1.66-3.1m2.16 6.94a2.07 2.07 0 1 0-3.95 1.21 2.07 2.07 0 0 0 3.95-1.2m2.72 5.52a1.64 1.64 0 1 0-3.13.96 1.64 1.64 0 1 0 3.13-.96m-.18-43.66a4.2 4.2 0 1 0-2.46-8.04 4.2 4.2 0 0 0 2.46 8.04m2.17-11.1a4.63 4.63 0 1 0 8.85-2.72 4.63 4.63 0 0 0-8.85 2.73"
     class="amsLogoSVG orange"
     id="path3"
     style="fill:#e87722;stroke:#e87722;stroke-width:0.21" />
  <path
     d="M24.8 48.77a1.21 1.21 0 0 0-.65-1.6 1.21 1.21 0 0 0-1.58.65 1.21 1.21 0 0 0 .64 1.59 1.21 1.21 0 0 0 1.59-.64m19.08-35a3.78 3.78 0 1 0 2.94-6.96 3.78 3.78 0 0 0-2.94 6.96m-3.3 3.78a3.36 3.36 0 0 0-6.16-2.62 3.36 3.36 0 0 0 6.15 2.62m-6.31 6.43a2.92 2.92 0 1 0-5.38-2.28 2.92 2.92 0 0 0 5.38 2.28m-4.4 6.8a2.5 2.5 0 1 0-4.6-1.94 2.5 2.5 0 0 0 4.6 1.94m-2.81 6.7a2.07 2.07 0 0 0-1.09-2.7 2.06 2.06 0 1 0 1.1 2.7m-1.46 6a1.65 1.65 0 0 0-.88-2.16 1.641.64 0 0 0-2.14.87 1.65 1.65 0 0 0 3.03 1.29M53.49 9.92a4.2 4.2 0 1 0 3.27-7.73 4.2 4.2 0 0 0-3.27 7.73m8.78-7.1a4.62 4.62 0 1 0 8.5 3.61 4.62 4.62 0 0 0-8.5-3.61"
     class="amsLogoSVG gray"
     id="path4"
     style="fill:#98a4ae;stroke:#98a4ae;stroke-width:0.21" />
  <path
     class="amsLogoSVG blue"
     d="m172.3 26.4.5-.02a19.79 19.8 0 0 0 1.7.06c.44 0 .51-.22.51-.35 0-.07-.02-.32-.4-.32h-.22c-.25 0-.64-.12-.64-.45 0-.36.1-.87.3-1.4l1.29-3.85c.02-.06.03-.06.05-.06h4.7l2.03 5.38c.05.12.06.24.03.3l-.03.03c-.25.07-.29.26-.29.33 0 .3.32.3.73.33h.1c.98.04 2.19.05 3.42.05.51 0 .62-.2.62-.35 0-.12-.05-.32-.4-.32-.2 0-.5-.02-.82-.12-.46-.13-1.03-.51-1.76-2.32-.94-2.35-2.94-7.58-4.14-10.7l-.94-2.43c-.25-.66-.37-.9-.64-.9-.26 0-.39.26-.64.97l-4.94 13.52c-.41 1.14-.81 1.82-1.69 1.93a5.57 5.58 0 0 1-.6.04c-.22 0-.38.13-.38.31 0 .36.44.36.6.36.69 0 1.45-.03 1.96-.05zm3.46-7.53 1.88-5.77 2.02 5.77h-3.91zm12.8 7.57c.35 0 .83-.02 1.2-.05l.42-.02h.33c.37.03.95.06 1.45.06.44 0 .52-.2.52-.35 0-.17-.18-.32-.33-.32-.14 0-.4-.02-.7-.1-.31-.08-.31-.29-.31-.36 0-.3 0-.64.02-.92l.7-7.85 1.47 3.07.75 1.53a159.93 160.08 0 0 0 2.24 4.3c.38.7.52.95.81.95.3 0 .44-.26.84-1.08l4.37-8.96.86 8.81c.04.27.02.42 0 .48a.33.33 0 0 0-.21.31c0 .3.4.35.7.38.71.07 2.86.1 3.28.1.35 0 .57-.13.57-.34 0-.19-.13-.32-.33-.32-.19 0-.66 0-1.18-.17-.62-.2-.78-.97-.86-1.76l-1.31-11.37c-.07-.55-.3-.66-.46-.66-.27 0-.4.27-.46.4l-5.42 11.16-5.62-11.18c-.17-.33-.41-.39-.56-.39-.2 0-.36.2-.4.49l-1.4 12.09-.02.18c-.07.67-.14 1.08-.56 1.15h-.07c-.23.05-.35.06-.47.06-.2 0-.37.13-.37.32 0 .13.06.35.5.35zm21.38-13.7.63.03c.5.08.58.26.63.86.05.59.05 1.1.05 3.98v3.26c0 1.81 0 3.24-.11 3.98v.06c-.1.54-.15.73-.35.77l-.23.03a1.9 1.9 0 0 1-.34.05c-.22 0-.33.17-.33.33 0 .12.06.33.49.33.25 0 .6-.02 1.11-.05l.81-.03c.3 0 .78 0 1.59.05h.44c.76.04 1.7.06 2.9.06.73 0 1.06 0 1.23-.6.1-.42.26-1.69.26-1.84 0-.4-.21-.46-.31-.46-.3 0-.34.28-.38.44-.1.73-.36.97-.76 1.14-.47.18-1.37.18-1.85.18-1.88 0-2.08-.23-2.11-1.3v-4.66c.47 0 2.34.02 2.82.08.74.09.8.3.84.45.07.2.07.39.07.55 0 .24.16.35.32.35.21 0 .35-.2.35-.52l.08-1.2c.03-.38.09-.64.12-.8a1 1 0 0 0 .04-.22c0-.23-.15-.33-.3-.33-.13 0-.21.1-.32.22l-.07.08c-.14.14-.35.17-.83.2-.3.04-1.79.04-3.11.04v-5.04c.45-.01 2.38 0 2.67.05 1.04.13 1.13.25 1.22.45.07.18.1.45.1.58 0 .39.25.42.32.42.19 0 .3-.17.35-.34a13.06 13.07 0 0 0 .13-1.23c.02-.32.07-.5.1-.65.03-.1.05-.17.05-.24 0-.27-.14-.35-.26-.35-.09 0-.17.04-.23.06l-.06.02-.12.03c-.19.02-.45.07-.74.08H212c-.44 0-1.28-.03-1.94-.03-.31 0-.48.1-.48.32 0 .17.17.33.32.33zm12.2 0 .63.03c.5.08.58.26.63.86.05.59.05 1.1.05 3.98v3.26c0 1.81 0 3.24-.11 3.98v.05c-.1.55-.15.73-.36.78-.16.03-.4.08-.55.08-.22 0-.33.17-.33.33 0 .12.07.33.49.33.5 0 1.48-.05 1.8-.06h.3c.4 0 1.34.06 2.15.06.45 0 .49-.26.49-.33a.32.32 0 0 0-.33-.33 6.1 6.1 0 0 1-.82-.08c-.45-.06-.55-.28-.61-.83-.09-.75-.09-2.17-.09-3.96v-.42l2.4.04q.06 0 .11.05l.79 1.03c.39.52.84 1.13 1.27 1.67 1.1 1.4 1.8 2.32 2.67 2.77.53.29 1.08.39 2.13.39h1.2c.22 0 .64 0 .64-.33a.34.34 0 0 0-.35-.33c-.1 0-.29 0-.65-.06-.5-.07-1.08-.27-2.03-1.24-1.04-1.08-2.27-2.63-3.72-4.42l-.17-.22c1.58-1.38 2.28-2.7 2.28-4.25 0-1.54-1.16-2.5-1.4-2.66a6.4 6.4 0 0 0-3.67-.84l-1.74.02-.65.02h-.3l-1.97-.04c-.31 0-.48.1-.48.33 0 .17.17.32.33.32zm3.32.5.01-.05a7.7 7.7 0 0 1 1.34-.11c1.96 0 3.12 1.3 3.12 3.45 0 1.23-.4 2.23-1.08 2.68-.4.28-.88.3-1.33.3-.88 0-1.8-.14-2-.25-.06-.04-.06-.06-.06-.1v-5.94zm12.64-.5c.12 0 .35.02.54.06.28.06.43.2.48.83.04.59.04 1.1.04 3.98v3.26c0 1.42 0 3.16-.1 4-.08.56-.14.77-.37.82-.16.03-.39.08-.54.08-.22 0-.33.17-.33.33 0 .12.06.33.48.33.43 0 1.13-.04 1.55-.05l.34-.01h.21c.4 0 1.36.06 2.18.06.45 0 .49-.26.49-.33a.33.33 0 0 0-.33-.33c-.16 0-.55-.03-.85-.08-.42-.06-.48-.27-.55-.83-.08-.75-.08-2.18-.08-3.99v-3.26c0-2.87 0-3.4.02-3.98.04-.63.14-.77.54-.86.2-.03.31-.03.45-.03.16 0 .32-.17.32-.33 0-.22-.16-.33-.48-.33l-1.63.04h-.61l-1.62-.04c-.31 0-.48.11-.48.33 0 .16.13.33.33.33zm9.22 11.92c1.58 1.38 3.63 2.02 6.42 2.02.73 0 2.53-.03 3.52-.42.4-.16.47-.27.59-.66a19.39 19.4 0 0 0 .46-2.42c0-.2-.15-.44-.35-.44-.28 0-.33.22-.38.41-.06.3-.3 1.07-.7 1.46-.68.69-1.55.82-3.02.82a6.54 6.55 0 0 1-6.72-6.52c0-1.65.2-3.36 1.66-4.7.88-.84 2.25-1.24 4.19-1.24 1.5 0 2.94.38 3.66.98.43.34.74 1.03.74 1.7 0 .2 0 .58.32.58.14 0 .37-.07.4-.56l.03-.92c0-.34 0-.7.02-.97l.06-.78.03-.29c0-.1-.04-.37-.42-.37-.52-.02-1.03-.11-1.6-.22l-.33-.06c-1-.16-2.11-.22-2.82-.22-2.59 0-4.53.67-5.96 2.04a7.51 7.52 0 0 0-2.2 5.17c0 2.37.8 4.26 2.39 5.63zm12.45 1.78c.52 0 1.13-.02 1.53-.05l.41-.01a21.13 21.15 0 0 0 1.71.06c.41 0 .46-.23.46-.33 0-.15-.1-.32-.38-.32h-.17c-.18 0-.47-.04-.47-.33 0-.3.1-.73.27-1.18l1.09-2.96.02-.03h4.43l1.72 4.24c.03.07.03.13.02.17a.15.15 0 0 1-.1.09l-.04.02c-.08.02-.2.08-.2.28 0 .27.32.28.7.3h.15c.86.04 1.94.05 3.03.05.53 0 .62-.2.62-.33 0-.2-.17-.32-.43-.32a2.5 2.5 0 0 1-.7-.1c-.33-.11-.82-.26-1.53-1.93l-2.71-6.66c-.92-2.25-1.7-4.2-1.88-4.58l-.1-.23c-.14-.3-.25-.55-.52-.55-.26 0-.38.24-.61.84l-4.51 11.58c-.38.96-.73 1.5-1.47 1.59a4.4 4.4 0 0 1-.54.04c-.2 0-.35.15-.35.32 0 .22.18.33.54.33zm4.9-6.28 1.74-4.95 1.84 4.95zM276 26.44c.6 0 1.19-.04 1.54-.05l.31-.01.28.01c.36.03.97.05 1.75.05.43 0 .52-.18.52-.33a.33.33 0 0 0-.33-.32c-.2 0-.6-.03-.91-.11-.39-.1-.56-.4-.6-1.94l-.21-8.26 4.64 4.9c2.05 2.13 4.8 4.85 5 5.02 1.08 1 1.3 1.17 1.57 1.17.32 0 .32-.25.32-1.5l.05-10.84c0-1.17.06-1.34.53-1.43.21-.04.34-.04.43-.04.23 0 .4-.18.4-.35 0-.32-.39-.32-.53-.32-.53 0-.97.03-1.28.04h-.76c-.4-.01-1-.04-1.59-.04-.17 0-.54 0-.54.32 0 .2.13.35.32.35.15 0 .57.02.91.09.42.07.55.3.57 1.55l.18 8.81-.75-.78c-.93-1-2.21-2.37-3.46-3.65-1.98-2.03-3.87-4.03-5-5.22l-1.06-1.1-.08-.09c-.28-.29-.55-.53-.8-.53-.38 0-.43.53-.43 1.11v10.62c0 1.66-.07 2.03-.41 2.13-.25.09-.6.1-.73.1a.33.33 0 0 0-.32.32c0 .33.35.33.48.33zm-88.6 21.59c.03.32 0 .52 0 .6a.32.32 0 0 0-.25.32c0 .33.43.36.78.4.83.07 3.2.13 3.64.13.6 0 .65-.29.65-.37 0-.09-.04-.3-.35-.3-.21 0-.76 0-1.36-.18-.78-.25-.96-1.25-1.06-2.16L188 33.1c-.04-.3-.08-.75-.44-.75-.29 0-.4.28-.48.44l-6.24 13.34-6.5-13.35c-.1-.23-.22-.43-.48-.43-.08 0-.37.03-.41.54l-1.56 14.2v.08c-.1.88-.21 1.48-.73 1.57-.32.06-.45.06-.62.06-.23 0-.4.12-.4.3 0 .16.1.37.55.37.37 0 .93-.02 1.34-.05l.49-.02h.38c.44.03 1.1.06 1.64.06.14 0 .57 0 .57-.38 0-.16-.16-.29-.35-.29-.14 0-.44-.02-.79-.1a.52.52 0 0 1-.42-.5c0-.38 0-.76.02-1.1l.82-9.58a415.33 415.72 0 0 0 2.67 5.74l.1.2a356.2 356.54 0 0 0 2.44 4.84l.05.09c.44.82.54 1.02.79 1.02.3 0 .38-.18.73-.95l5.26-11.16.99 10.71zm17.05.52c.04.07.04.13.03.17a.15.15 0 0 1-.1.08l-.05.03c-.07.02-.2.08-.2.28 0 .26.32.27.71.3h.15c.86.04 1.94.05 3.03.05.53 0 .61-.2.61-.33 0-.2-.17-.33-.42-.33a2.5 2.5 0 0 1-.7-.1c-.33-.1-.83-.25-1.53-1.92l-2.71-6.66c-.92-2.26-1.71-4.2-1.88-4.58l-.11-.23c-.13-.3-.24-.55-.51-.55s-.39.24-.62.84l-4.5 11.58c-.38.96-.73 1.49-1.47 1.59a4.4 4.4 0 0 1-.55.03c-.19 0-.35.16-.35.33 0 .22.18.33.55.33.52 0 1.12-.03 1.52-.05l.42-.01a21.13 21.15 0 0 0 1.7.06c.42 0 .47-.23.47-.33 0-.16-.1-.33-.38-.33h-.17c-.18 0-.47-.03-.47-.32 0-.3.1-.73.26-1.18l1.1-2.96.02-.04h4.42l1.72 4.25zm-2.17-5.36h-3.58l1.74-4.95zm14.52-6.83c1.8.04 2.08.44 2.13.86l.03.2c0 .17.03.5.32.5.17 0 .35-.15.35-.43 0-.09 0-.33.03-.63l.05-1.5c0-.1 0-.4-.27-.4l-.28.04-.29.05a8.97 8.97 0 0 1-1.34.09h-7.22c-.21 0-.94-.03-1.48-.09-.3-.04-.49-.1-.62-.16a.7.7 0 0 0-.25-.06c-.19 0-.26.2-.36.43l-.02.08-.12.56c-.2.9-.3 1.35-.3 1.47 0 .2.17.32.32.32.2 0 .32-.1.35-.27a2.5 2.5 0 0 1 .3-.57c.24-.37.65-.49 1.79-.51l2.58-.04v7.6c0 1.8 0 3.23-.09 3.98-.07.58-.18.79-.43.85-.22.05-.4.08-.52.08a.3.3 0 0 0-.33.32c0 .22.16.33.48.33l1.66-.05.32-.01h.25c.44.02 1.34.06 2.12.06.45 0 .49-.26.49-.33a.32.32 0 0 0-.33-.33c-.17 0-.6-.05-.85-.08-.45-.07-.52-.3-.59-.83-.09-.75-.09-2.18-.09-3.99v-7.59l2.21.04zm20.62 12.77c0-.17-.12-.33-.35-.33a6 6 0 0 1-.82-.08c-.44-.06-.48-.26-.55-.83-.1-.83-.1-2.57-.1-3.99v-3.26c0-2.87 0-3.4.04-3.98.05-.65.16-.78.5-.86.23-.03.34-.03.46-.03.18 0 .35-.16.35-.33 0-.15-.09-.33-.51-.33l-1.54.04h-.6l-1.93-.04c-.32 0-.49.11-.49.33 0 .16.14.33.33.33l.63.03c.49.08.57.23.6.86a85 85 0 0 1 .06 4.02V41h-7.84v-.31c0-2.85 0-3.43.02-4.01.04-.64.13-.78.53-.87.21-.03.32-.03.45-.03.17 0 .33-.17.33-.33 0-.22-.16-.33-.49-.33l-1.6.04h-.56c-.44-.01-1.28-.04-1.92-.04-.31 0-.48.11-.48.33 0 .17.17.33.32.33l.63.03c.5.08.59.26.63.87.05.58.05 1.1.05 3.97v3.27c0 1.8 0 3.23-.1 3.97v.05c-.1.55-.15.73-.37.78-.16.03-.39.08-.55.08-.21 0-.32.17-.32.33 0 .12.06.33.48.33.43 0 1.14-.04 1.58-.05l.34-.01h.2c.4 0 1.34.06 2.17.06.45 0 .49-.26.49-.33a.33.33 0 0 0-.33-.33c-.16 0-.55-.03-.85-.08-.42-.06-.48-.27-.54-.83-.09-.75-.09-2.16-.09-3.94v-1.78h7.84v1.78c0 1.77 0 3.17-.08 3.92-.08.58-.14.79-.4.85-.21.05-.4.08-.51.08-.22 0-.33.17-.33.33 0 .22.16.33.48.33.42 0 1.18-.04 1.6-.05l.3-.01h.26c.44 0 1.32.06 2.12.06.49 0 .51-.28.51-.33zm11.96-2.52c-.3 0-.34.28-.38.43-.1.73-.36.97-.76 1.14-.47.19-1.37.19-1.85.19-1.88 0-2.07-.23-2.11-1.31V42.4c.47 0 2.34.02 2.82.08.74.09.8.3.84.45.07.2.07.4.07.55 0 .24.16.35.32.35.21 0 .35-.2.35-.52l.08-1.19c.03-.39.09-.64.12-.81a1 1 0 0 0 .04-.22c0-.23-.15-.33-.3-.33-.13 0-.21.1-.32.22l-.07.09c-.13.13-.35.17-.83.2-.3.04-1.79.04-3.1.04v-5.05c.44 0 2.37 0 2.66.05 1.04.14 1.14.26 1.22.45.07.18.1.45.1.58 0 .4.25.43.32.43.19 0 .3-.17.36-.34a13.06 13.07 0 0 0 .12-1.24c.02-.31.07-.5.1-.64.03-.1.05-.17.05-.24 0-.27-.14-.36-.26-.36-.09 0-.17.04-.23.06l-.06.03-.12.02c-.19.03-.45.08-.74.09h-4.85c-.44-.01-1.28-.04-1.94-.04-.31 0-.48.11-.48.33 0 .17.17.33.32.33l.63.03c.5.08.59.26.63.86.05.59.05 1.1.05 3.98v3.26c0 1.81 0 3.24-.1 3.98v.06c-.1.54-.15.73-.36.77l-.23.03c-.12.03-.24.05-.34.05-.22 0-.32.17-.32.33 0 .12.06.33.48.33.25 0 .6-.02 1.11-.05l.82-.03c.29 0 .77 0 1.58.05h.44c.76.04 1.7.06 2.9.06.73 0 1.06 0 1.23-.6.11-.42.27-1.69.27-1.84 0-.4-.22-.46-.32-.46zm22.2 2.2c-.19 0-.67 0-1.2-.18-.6-.2-.77-.97-.85-1.76l-1.31-11.37c-.07-.55-.3-.66-.46-.66-.27 0-.4.27-.46.4l-5.42 11.16-5.62-11.18c-.17-.33-.41-.39-.56-.39-.2 0-.36.2-.4.49l-1.39 12.09-.02.18c-.08.67-.15 1.08-.57 1.15h-.06c-.23.05-.35.06-.48.06-.2 0-.37.14-.37.32 0 .13.06.35.5.35.35 0 .83-.02 1.2-.05l.42-.02h.33c.37.03.95.06 1.45.06.44 0 .52-.2.52-.35 0-.17-.18-.32-.33-.32-.14 0-.4-.02-.7-.1-.31-.08-.31-.29-.31-.36 0-.3 0-.64.02-.92l.7-7.85 1.47 3.07.75 1.53a159.93 160.08 0 0 0 2.24 4.3c.38.7.52.95.81.95.3 0 .44-.26.84-1.08l4.37-8.96.86 8.81c.04.27.02.42 0 .48a.33.33 0 0 0-.21.31c0 .3.4.35.7.38.71.07 2.86.1 3.28.1.35 0 .57-.13.57-.34 0-.19-.13-.32-.33-.32zm16.28 0a2.5 2.5 0 0 1-.7-.1c-.33-.11-.83-.26-1.53-1.93l-2.71-6.66c-.92-2.26-1.71-4.2-1.88-4.58l-.11-.23c-.13-.3-.24-.55-.51-.55s-.39.24-.62.84l-4.5 11.58c-.38.96-.73 1.49-1.47 1.59a4.4 4.4 0 0 1-.55.03c-.19 0-.35.16-.35.33 0 .22.18.33.55.33.52 0 1.12-.03 1.52-.05l.42-.01a21.13 21.15 0 0 0 1.7.06c.42 0 .47-.23.47-.33 0-.16-.1-.33-.38-.33h-.17c-.18 0-.47-.03-.47-.32 0-.3.1-.73.26-1.18l1.1-2.96.02-.04h4.42l1.72 4.25c.04.07.04.13.03.17a.15.15 0 0 1-.1.08l-.05.03c-.07.02-.2.08-.2.28 0 .26.32.27.7.3h.15c.86.04 1.94.05 3.03.05.54 0 .62-.2.62-.33 0-.2-.17-.33-.42-.33zm-5.91-5.62h-3.59l1.75-4.95zm17.14-8.21-.28.03-.29.05a8.97 8.97 0 0 1-1.34.09h-7.22c-.21 0-.94-.03-1.48-.09-.3-.03-.49-.1-.62-.16a.7.7 0 0 0-.25-.06c-.19 0-.26.21-.36.43l-.02.08-.12.56c-.2.9-.3 1.35-.3 1.47 0 .2.17.33.32.33.2 0 .32-.1.35-.28a2.5 2.5 0 0 1 .3-.57c.24-.37.65-.49 1.79-.51l2.58-.04v7.6c0 1.8 0 3.23-.09 3.98-.07.59-.18.8-.43.85-.22.05-.4.09-.52.09a.3.3 0 0 0-.33.31c0 .22.16.33.48.33l1.66-.05.32-.01h.25c.44.02 1.34.06 2.12.06.45 0 .49-.25.49-.33a.32.32 0 0 0-.33-.33c-.17 0-.6-.04-.85-.08-.45-.07-.52-.3-.59-.82-.09-.76-.09-2.19-.09-4v-7.59l2.21.04c1.8.04 2.08.44 2.13.86l.03.2c0 .17.03.5.32.5.17 0 .35-.15.35-.43 0-.09 0-.33.03-.63l.05-1.5c0-.1 0-.4-.27-.4zm7.68 13.82c-.15 0-.54-.03-.85-.08-.42-.06-.48-.27-.54-.83-.09-.75-.09-2.18-.09-3.99v-3.26c0-2.87 0-3.4.03-3.98.03-.63.13-.77.53-.86.2-.03.32-.03.45-.03.17 0 .33-.17.33-.33 0-.22-.16-.33-.49-.33l-1.62.04h-.62l-1.61-.04c-.32 0-.48.11-.48.33 0 .16.13.33.32.33.12 0 .35.02.55.06.28.06.42.2.47.83.05.59.05 1.1.05 3.98v3.26c0 1.42-.01 3.16-.11 4-.07.56-.13.77-.36.82-.16.03-.4.08-.55.08-.22 0-.33.17-.33.33 0 .12.06.33.49.33.42 0 1.12-.04 1.55-.05l.34-.01h.2c.4 0 1.36.06 2.19.06.44 0 .48-.26.48-.33a.33.33 0 0 0-.33-.33zm15.68-3.04c-.28 0-.33.22-.38.41-.06.3-.3 1.07-.69 1.46-.69.69-1.56.82-3.02.82a6.54 6.55 0 0 1-6.73-6.52c0-1.65.2-3.36 1.66-4.7.89-.85 2.25-1.25 4.2-1.25 1.5 0 2.94.4 3.65.99.44.34.74 1.03.74 1.7 0 .2 0 .58.33.58.13 0 .36-.08.4-.56l.02-.92c0-.34 0-.7.03-.97l.06-.78.02-.29c0-.11-.04-.38-.41-.38-.52 0-1.03-.1-1.61-.21l-.33-.07c-1-.15-2.1-.21-2.81-.21-2.6 0-4.53.66-5.96 2.03a7.51 7.52 0 0 0-2.2 5.18c0 2.37.8 4.26 2.38 5.63 1.59 1.38 3.64 2.02 6.42 2.02.73 0 2.53-.03 3.53-.42.39-.16.46-.27.58-.65a19.39 19.4 0 0 0 .46-2.43c0-.2-.15-.44-.35-.44zm16.19 3.04a2.5 2.5 0 0 1-.7-.1c-.33-.1-.83-.25-1.53-1.92l-2.72-6.66c-.92-2.26-1.7-4.2-1.87-4.58l-.11-.23c-.14-.3-.25-.55-.51-.55-.27 0-.39.24-.62.84l-4.5 11.58c-.38.96-.73 1.49-1.47 1.59a4.4 4.4 0 0 1-.55.03c-.2 0-.35.16-.35.33 0 .22.18.33.55.33.52 0 1.12-.03 1.52-.05l.41-.01a21.13 21.15 0 0 0 1.71.06c.41 0 .46-.23.46-.33 0-.16-.1-.33-.37-.33h-.17c-.18 0-.47-.03-.47-.32 0-.3.1-.73.26-1.18l1.1-2.96.02-.04h4.42l1.72 4.25c.04.07.04.13.02.17a.15.15 0 0 1-.1.08l-.04.03c-.07.02-.2.08-.2.28 0 .26.32.27.7.3h.15c.86.04 1.94.05 3.03.05.53 0 .62-.2.62-.33 0-.2-.17-.33-.42-.33zm-5.92-5.61h-3.58l1.74-4.95zm16.98 3.33c-.2 0-.33.15-.38.4-.06.37-.21.72-.4.95-.4.46-1.16.5-2.18.5-1.4 0-2.15-.13-2.42-.4-.32-.28-.34-1.71-.34-4.02v-3.3c0-2.88 0-3.4.02-3.99.05-.64.15-.8.56-.88l.62-.04c.16 0 .33-.13.33-.31 0-.12-.06-.33-.49-.33l-1.78.04h-.62c-.42-.02-1.24-.04-1.9-.04-.31 0-.48.1-.48.33 0 .17.17.32.32.32l.63.04c.5.07.59.25.63.86.05.58.05 1.1.05 3.98v3.26c0 1.8 0 3.24-.1 3.98v.05c-.1.54-.15.73-.37.77-.16.04-.39.09-.55.09-.21 0-.32.17-.32.33 0 .12.06.32.48.32.3 0 .7-.02 1.12-.05.36-.02.69-.02.77-.02l1.52.02h.55c.91.07 1.98.09 3.34.09 1 0 1.2-.05 1.39-.63.16-.56.29-1.7.29-1.9 0-.4-.2-.47-.31-.47zM176.68 62.83l-.6-.48c-2.04-1.59-2.58-2.34-2.58-3.52 0-1.4 1-2.35 2.5-2.35 1.78 0 2.38.74 2.56 1.05.1.21.24.78.27 1.04.02.15.06.43.35.43.32 0 .32-.43.32-.68 0-1.16.05-1.84.08-2.13v-.17c0-.22-.14-.33-.4-.33-.15 0-.3-.01-.72-.1a8.34 8.34 0 0 0-2.06-.23c-2.8 0-4.69 1.65-4.69 4.1 0 1.5.5 2.89 2.9 4.87l.98.8c1.92 1.57 2.44 2.39 2.44 3.78 0 1.4-1 2.72-2.94 2.72-.78 0-2.66-.21-3.04-2.09-.06-.3-.06-.58-.06-.76 0-.11 0-.43-.32-.43-.3 0-.34.37-.36.52l-.02.26c-.04.43-.08 1.17-.08 2.06 0 .6.02.79.42.98.84.41 1.82.6 3 .6 1.32 0 2.49-.32 3.38-.94a4.69 4.7 0 0 0 1.93-3.76c0-1.7-.53-3.11-3.25-5.26zm13.51-4.96a7.54 7.54 0 0 0-7.78 7.41 7.25 7.25 0 0 0 7.67 7.46 7.63 7.63 0 0 0 7.87-7.74c0-4.41-3.12-7.13-7.76-7.13zm-.1 1.06c2.75 0 5.54 2.04 5.54 6.6 0 1.01-.24 6.08-5 6.08-3.52 0-5.87-2.74-5.87-6.82 0-3.67 1.99-5.86 5.33-5.86zm23.17 9.86c-.28 0-.33.22-.38.41-.06.3-.3 1.07-.69 1.46-.69.69-1.56.82-3.03.82a6.54 6.55 0 0 1-6.72-6.52c0-1.65.2-3.36 1.66-4.7.88-.85 2.25-1.25 4.2-1.25 1.5 0 2.94.4 3.65.99.44.34.74 1.03.74 1.7 0 .2 0 .58.33.58.13 0 .36-.08.4-.56l.02-.92c0-.34 0-.7.03-.97l.06-.78.02-.3c0-.1-.04-.37-.41-.37-.52 0-1.03-.1-1.61-.22l-.33-.06c-1-.15-2.1-.21-2.81-.21-2.6 0-4.53.66-5.96 2.03a7.51 7.52 0 0 0-2.2 5.18c0 2.37.8 4.26 2.38 5.63 1.59 1.38 3.63 2.02 6.42 2.02.73 0 2.53-.03 3.53-.42.38-.16.46-.27.58-.66a19.39 19.4 0 0 0 .46-2.42c0-.2-.15-.44-.35-.44zm8.77 3.04c-.16 0-.54-.03-.85-.08-.42-.06-.48-.27-.54-.83-.09-.75-.09-2.18-.09-3.99v-3.26c0-2.87 0-3.4.03-3.98.03-.63.13-.77.53-.86.2-.03.32-.03.45-.03.17 0 .33-.17.33-.33 0-.22-.16-.33-.49-.33l-1.62.04h-.62l-1.61-.04c-.32 0-.49.11-.49.33 0 .16.14.33.33.33.12 0 .35.02.55.06.28.06.42.2.47.83.05.59.05 1.1.05 3.98v3.26c0 1.42-.01 3.16-.11 4-.07.56-.13.77-.36.82-.16.03-.4.08-.55.08-.22 0-.33.17-.33.33 0 .12.06.33.49.33.42 0 1.12-.04 1.55-.05l.34-.01h.2c.4 0 1.36.06 2.18.06.45 0 .49-.26.49-.33a.33.33 0 0 0-.33-.33zm12.3-2.2c-.3 0-.34.29-.38.44-.1.73-.36.97-.76 1.14-.47.19-1.37.19-1.85.19-1.88 0-2.08-.23-2.11-1.31v-4.66c.47 0 2.34.02 2.82.08.74.09.8.3.84.45.07.2.07.4.07.55 0 .24.16.35.32.35.21 0 .35-.2.35-.52l.08-1.19c.03-.39.09-.64.12-.81a1 1 0 0 0 .04-.22c0-.23-.15-.33-.3-.33-.13 0-.21.1-.32.22l-.07.09c-.13.13-.35.16-.83.2-.3.04-1.79.04-3.1.04v-5.05c.44 0 2.37 0 2.66.05 1.04.13 1.14.26 1.22.45.07.18.1.45.1.58 0 .39.25.43.32.43.19 0 .3-.17.36-.34a13.06 13.07 0 0 0 .12-1.24c.02-.32.07-.5.1-.64.03-.1.05-.17.05-.25 0-.26-.14-.35-.26-.35-.09 0-.17.04-.23.06l-.06.03-.12.02c-.19.03-.45.07-.74.09h-4.85a50.8 50.8 0 0 0-1.94-.04c-.31 0-.48.11-.48.33 0 .17.17.33.32.33l.63.03c.5.07.59.26.63.86.05.59.05 1.1.05 3.98v3.26c0 1.81 0 3.24-.1 3.98v.06c-.1.53-.15.73-.36.77l-.23.03c-.12.03-.24.05-.34.05-.22 0-.32.17-.32.33 0 .12.06.33.48.33.25 0 .6-.02 1.11-.05l.82-.03c.29 0 .77 0 1.58.05h.44c.76.04 1.7.06 2.9.06.73 0 1.06 0 1.23-.6.11-.42.27-1.7.27-1.84 0-.4-.22-.46-.32-.46zm14.4-11.62-.27.03-.3.05a8.97 8.97 0 0 1-1.34.09h-7.22c-.2 0-.93-.03-1.48-.09-.3-.03-.48-.1-.62-.16a.7.7 0 0 0-.25-.06c-.18 0-.26.21-.35.43l-.03.08-.12.56c-.2.9-.29 1.35-.29 1.47 0 .2.16.33.32.33.2 0 .31-.1.35-.28a2.5 2.5 0 0 1 .29-.57c.24-.37.65-.49 1.8-.51l2.57-.04v7.6c0 1.8 0 3.23-.08 3.98-.07.58-.18.8-.44.85-.22.05-.4.09-.52.09a.3.3 0 0 0-.33.31c0 .22.16.33.49.33l1.66-.05.31-.01h.26c.43.02 1.33.06 2.12.06.45 0 .48-.26.48-.33a.32.32 0 0 0-.32-.33c-.17 0-.6-.04-.85-.08-.45-.07-.52-.3-.6-.83-.08-.75-.08-2.18-.08-3.98v-7.6l2.2.04c1.8.04 2.09.44 2.14.86l.02.2c.01.16.04.5.33.5.17 0 .35-.15.35-.43 0-.09 0-.33.02-.63l.05-1.5c0-.1 0-.4-.26-.4zm14.9.12-1.34.02-.54.01h-.32l-1-.04c-.43 0-.49.18-.49.29 0 .18.16.32.41.39.1.02.19.07.19.3 0 .23-.1.52-.3.87l-.78 1.32a123.7 123.7 0 0 0-2.2 3.78l-3.33-5.5-.02-.06c-.11-.2-.2-.39-.2-.58 0-.04 0-.09.11-.13.22-.09.43-.17.43-.37 0-.31-.33-.31-.44-.31-.52 0-1.06.02-1.4.03h-.68l-1.47-.03c-.36 0-.42.2-.42.31 0 .2.17.35.37.35.12 0 .46.08.7.23.3.21.76.6 1.22 1.3.65.97 3.23 5.08 3.38 5.36.26.5.39.84.39 1.8v1.6c0 .29 0 1.08-.05 1.83-.05.62-.2.77-.44.82-.22.05-.4.09-.52.09-.22 0-.33.17-.33.33 0 .21.16.32.49.32.41 0 1.17-.03 1.57-.05h.55c.43.02 1.35.05 2.15.05.36 0 .49-.18.49-.32a.33.33 0 0 0-.33-.33c-.17 0-.6-.05-.85-.09-.4-.06-.54-.25-.59-.8-.06-.76-.06-1.55-.06-1.84v-1.92c0-.48-.02-.94.23-1.44.4-.79 3.09-5.14 3.7-5.85.4-.5.56-.67.9-.87.27-.14.6-.22.8-.22.26 0 .43-.2.43-.37 0-.18-.17-.3-.43-.3z"
     id="path5"
     style="fill:#0057b8;stroke:#0057b8;stroke-width:0.21" />
  <path
     d="M53.91 80.72h1.31l1.7 8.82h-1.34l-.46-2.3h-4.08l-1.44 2.3h-1.26zm-2.29 5.53h3.33l-.7-4.32-2.62 4.32zm12.59-5.52h1.15l-1.66 7.83-.16.98H62.4l.18-.98c-.13.17-.31.42-.67.64a3.3 3.3 0 0 1-1.62.45c-.8 0-2.54-.43-1.97-3.12.5-2.33 2.03-3.35 3.48-3.35 1.32 0 1.6.78 1.68 1.05l.74-3.5zm-1.26 3.96c-.18-.32-.57-.62-1.22-.62-1.69 0-2.11 2.04-2.2 2.45-.23 1.09-.21 2.34 1.2 2.34 1.8 0 2.22-1.99 2.32-2.46.18-.89.08-1.39-.1-1.71zm2.97-1.28h1.28l.92 4.87 2.95-4.87h1.27l-3.99 6.13H67.2l-1.26-6.13zm10.14 6.13a3.03 3.03 0 0 1 .08-.92 2.49 2.49 0 0 1-2.12 1.11c-1.4 0-2-.79-1.78-1.8.11-.49.44-1.28 1.46-1.8.74-.36 1.72-.4 2.2-.4.3 0 .47.01.83.04.15-.76.23-1.1.06-1.36-.16-.3-.65-.4-.99-.4-1.16 0-1.39.79-1.45 1.04H73.2c.1-.31.23-.74.67-1.16a3.31 3.31 0 0 1 2.12-.66c.88 0 1.78.28 1.97.9.12.36.07.65.01.95L77.31 88c-.03.1-.18.91-.23 1.54h-1.04zm-.15-3c-.46 0-2.2 0-2.47 1.24-.08.39 0 1.07 1.04 1.07.59 0 1.08-.23 1.46-.66.34-.41.42-.75.63-1.61a4.85 4.85 0 0 0-.64-.04zm4.38-2.42.14-.7h1.15l-.2.99c.2-.26.81-1.12 2.2-1.12.55 0 2.17.2 1.77 2.09l-.87 4.16H83.3l.83-3.9c.08-.4.1-.76-.11-1.05-.23-.28-.6-.41-1-.41-.83 0-1.73.6-2 1.83l-.73 3.53h-1.15zm10.62 1.26c.04-.28.17-1.29-.94-1.29-1.59 0-1.98 1.85-2.07 2.3-.27 1.27-.22 2.43 1 2.43.98 0 1.47-.72 1.61-1.33h1.17a2.98 2.98 0 0 1-2.95 2.2c-.4 0-1.34-.1-1.84-.8-.28-.42-.5-1.07-.23-2.34.53-2.54 2.25-3.3 3.48-3.3.4 0 1.3.08 1.72.75.34.52.26 1.03.22 1.37H90.9zm3.06-1.97h1.15l-1.31 6.13h-1.15zm.43-2.66h1.38L95.52 82h-1.38zm2.81 3.37.15-.7h1.15l-.2.99c.19-.26.8-1.12 2.2-1.12.54 0 2.17.2 1.77 2.09l-.87 4.16h-1.18l.82-3.9c.09-.4.11-.76-.1-1.05a1.28 1.28 0 0 0-1.01-.41c-.82 0-1.72.6-1.99 1.83l-.74 3.53h-1.15zm7.27 5.9c-.1.67.09 1.2 1.18 1.2 1.6 0 1.86-1.17 2.22-2.83-.7 1.01-1.87 1.04-2.23 1.04-.56 0-1.35-.12-1.72-.75-.4-.62-.4-1.45-.22-2.26.45-2.07 1.88-3.1 3.38-3.1 1.23 0 1.56.62 1.73.93l.2-.84h1.1l-.26 1.12-.8 3.83c-.32 1.48-.5 2.08-.85 2.54-.71.98-1.93 1.1-2.78 1.1-2.45 0-2.28-1.15-2.15-1.98h1.23zm3.1-2.06c.32-.31.56-.64.8-1.76.15-.76.08-1.21-.15-1.52a1.47 1.47 0 0 0-1.21-.54c-1.46 0-1.97 1.47-2.12 2.25-.21.94-.19 2.18 1.22 2.18a1.9 1.9 0 0 0 1.46-.6zm7.84-3.3c.09-.4.16-.83.21-1.25h1.16l-.23 1.2a2.2 2.2 0 0 1 1.72-1.22c.35-.05.6-.04.8-.02l-.24 1.12-.2-.05h-.33c-1.36 0-1.84.8-2.06 1.85l-.7 3.26h-1.16l1.05-4.89zm4.95 2.03c-.3 1.27.02 2.2 1.28 2.2.74 0 1.43-.38 1.71-1.27h1.15c-.1.3-.25.8-.79 1.29a3.27 3.27 0 0 1-2.27.81c-1.93 0-2.59-1.2-2.19-3.14.26-1.21.72-2.2 1.83-2.89a3.38 3.38 0 0 1 1.76-.45c2.75 0 2.17 2.43 1.94 3.44h-4.4zm3.4-.81c.14-.59.28-1.81-1.14-1.81-.74 0-1.74.45-2.04 1.8zm3.12 1.84c-.11.46-.02 1.11 1.1 1.11.47 0 .85-.08 1.16-.38.16-.16.28-.37.32-.57.13-.6-.28-.7-1.15-.92-1.23-.3-2.23-.55-1.97-1.84.23-1.12 1.37-1.85 2.79-1.85.76 0 1.8.22 2.01.96.09.34.02.63-.04.88h-1.17c.23-.92-.55-1-.97-1-.17 0-1.25 0-1.44.87-.11.56.4.69.7.77 1.61.4 1.95.5 2.24.84.27.32.3.74.22 1.14a2.42 2.43 0 0 1-1.16 1.55c-.6.33-1.28.42-1.9.42-1.25 0-2.3-.51-1.97-2h1.21zm6.36-1.03c-.3 1.27.02 2.2 1.28 2.2a1.7 1.7 0 0 0 1.7-1.27h1.16c-.1.3-.25.8-.79 1.29a3.27 3.27 0 0 1-2.28.81c-1.92 0-2.58-1.2-2.18-3.14.26-1.21.72-2.2 1.83-2.89a3.38 3.38 0 0 1 1.76-.45c2.75 0 2.17 2.43 1.94 3.44h-4.4zm3.4-.81c.13-.59.28-1.81-1.14-1.81-.74 0-1.74.45-2.05 1.8zm5.8 3.66a3.03 3.03 0 0 1 .09-.92 2.49 2.49 0 0 1-2.12 1.11c-1.4 0-2-.79-1.78-1.8a2.6 2.6 0 0 1 1.45-1.8c.74-.36 1.72-.4 2.2-.4.3 0 .48.01.83.04.16-.76.23-1.1.06-1.36-.16-.3-.64-.4-.98-.4-1.16 0-1.4.79-1.45 1.04h-1.15c.1-.31.23-.74.66-1.16a3.33 3.33 0 0 1 2.12-.66c.89 0 1.78.28 1.98.9.12.36.07.65 0 .95L143.7 88c-.02.1-.18.91-.23 1.54h-1.04zm-.15-3c-.46 0-2.2 0-2.47 1.24-.09.39 0 1.07 1.04 1.07.58 0 1.08-.23 1.45-.66.34-.41.43-.75.63-1.61a4.85 4.85 0 0 0-.64-.04zm4.3-1.88c.08-.4.16-.83.2-1.25h1.17l-.23 1.2a2.2 2.2 0 0 1 1.72-1.22c.35-.05.6-.04.8-.02l-.25 1.12-.2-.05h-.33c-1.36 0-1.84.8-2.06 1.85l-.69 3.26h-1.16l1.04-4.89zm8 .72c.04-.28.18-1.29-.94-1.29-1.59 0-1.97 1.85-2.07 2.3-.27 1.27-.22 2.43 1 2.43.99 0 1.47-.72 1.62-1.33h1.16a2.98 2.98 0 0 1-2.94 2.2c-.42 0-1.35-.1-1.85-.8-.27-.42-.5-1.07-.23-2.34.54-2.54 2.26-3.3 3.48-3.3.4 0 1.31.08 1.72.75.34.52.27 1.03.22 1.37h-1.16zm2.99-4.65h1.16l-.75 3.58a2.85 2.85 0 0 1 2.2-1.02c.65 0 1.53.23 1.72.98.07.25.09.54-.1 1.44l-.8 3.83h-1.18l.76-3.63c.13-.54.37-1.73-.95-1.73-.85 0-1.4.52-1.61.81a3.27 3.27 0 0 0-.46 1.3l-.7 3.25h-1.16zm5.81 7.34h1.36l-.32 1.47h-1.35zm13.22-4.96c0-.3.12-1.53-1.57-1.53-2.12 0-2.97 2.17-3.29 3.64-.35 1.66-.25 3.46 1.76 3.46.53 0 1.08-.14 1.54-.52.39-.34.54-.72.62-.93h1.34c-.54 1.74-2.29 2.45-3.8 2.45-3.1 0-3.13-2.72-2.77-4.43.4-1.86 1.71-4.64 4.85-4.64 1.25 0 2.9.5 2.62 2.5h-1.31zm2.56 1.55c.08-.4.16-.83.2-1.25h1.17l-.23 1.2a2.2 2.2 0 0 1 1.72-1.22c.35-.05.6-.04.8-.02l-.25 1.12-.2-.05h-.33c-1.36 0-1.84.8-2.06 1.85l-.69 3.26h-1.16l1.04-4.89zm4.95 2.03c-.29 1.27.03 2.2 1.29 2.2a1.7 1.7 0 0 0 1.7-1.27h1.16c-.1.3-.26.8-.8 1.29a3.27 3.27 0 0 1-2.27.81c-1.92 0-2.58-1.2-2.18-3.14.26-1.21.72-2.2 1.83-2.89a3.38 3.38 0 0 1 1.76-.45c2.74 0 2.17 2.43 1.94 3.44h-4.4zm3.4-.81c.13-.59.27-1.81-1.14-1.81-.74 0-1.75.45-2.05 1.8zm5.8 3.66a3.03 3.03 0 0 1 .08-.92 2.49 2.49 0 0 1-2.12 1.11c-1.4 0-2-.79-1.78-1.8.11-.49.44-1.28 1.46-1.8.74-.36 1.72-.4 2.2-.4.3 0 .47.01.83.04.15-.76.23-1.1.06-1.36-.16-.3-.65-.4-.99-.4-1.16 0-1.39.79-1.45 1.04h-1.15c.1-.31.23-.74.67-1.16a3.31 3.31 0 0 1 2.12-.66c.88 0 1.78.28 1.97.9.12.36.07.65 0 .95l-.66 2.93c-.03.1-.19.91-.24 1.54h-1.04zm-.15-3c-.46 0-2.2 0-2.47 1.24-.08.39.01 1.07 1.04 1.07.59 0 1.08-.23 1.46-.66.34-.41.42-.75.63-1.61a4.85 4.85 0 0 0-.64-.04zm3.57-3.15h1.09l.26-1.29 1.23-.36-.35 1.65h1.36l-.18.84h-1.37l-.77 3.67c-.06.3-.17.81.64.81.23 0 .46-.03.56-.06l-.18.89a5.9 5.9 0 0 1-.96.07c-1.06 0-1.5-.3-1.29-1.3l.86-4.1h-1.09l.19-.83zm5.01.02h1.15l-1.3 6.13h-1.16zm.44-2.66h1.38L203.3 82h-1.38zm2.8 3.37.15-.7h1.16l-.21.99c.2-.26.81-1.12 2.2-1.12.55 0 2.17.2 1.77 2.09l-.87 4.16h-1.17l.82-3.9c.08-.4.1-.76-.1-1.05a1.32 1.32 0 0 0-1.02-.41c-.82 0-1.72.6-1.98 1.83l-.74 3.53h-1.15zm7.28 5.9c-.1.67.08 1.2 1.17 1.2 1.6 0 1.87-1.17 2.22-2.83-.7 1.01-1.86 1.04-2.23 1.04-.56 0-1.34-.12-1.72-.75-.39-.62-.39-1.45-.22-2.26.45-2.07 1.88-3.1 3.38-3.1 1.24 0 1.57.62 1.74.93l.19-.84h1.11l-.26 1.12-.81 3.83c-.32 1.48-.5 2.08-.85 2.54-.72.98-1.94 1.1-2.78 1.1-2.44 0-2.27-1.15-2.14-1.98h1.22zm3.09-2.06c.31-.31.56-.64.79-1.76.15-.76.08-1.21-.15-1.52a1.47 1.47 0 0 0-1.21-.54c-1.46 0-1.96 1.47-2.12 2.25-.2.94-.18 2.18 1.22 2.18.67 0 1.12-.24 1.47-.6zm11.1-2.58c.04-.28.18-1.29-.94-1.29-1.58 0-1.97 1.85-2.07 2.3-.27 1.27-.22 2.43 1 2.43.99 0 1.47-.72 1.62-1.33h1.16a2.98 2.98 0 0 1-2.94 2.2c-.41 0-1.35-.1-1.84-.8-.28-.42-.5-1.07-.23-2.34.53-2.54 2.25-3.3 3.47-3.3.4 0 1.31.08 1.72.75.34.52.27 1.03.22 1.37h-1.16zm5.73-2.12c2.44 0 2.59 1.92 2.32 3.21-.38 1.8-1.72 3.29-3.8 3.29-2.09 0-2.72-1.41-2.33-3.2.32-1.52 1.4-3.3 3.8-3.3zm-1.28 5.64c.87 0 2-.62 2.38-2.47.33-1.52-.2-2.32-1.28-2.32-.73 0-2.02.46-2.43 2.37-.26 1.26.03 2.42 1.33 2.42zm5.92-4.78.14-.7h1.15l-.2.99c.2-.26.81-1.12 2.2-1.12.55 0 2.17.2 1.77 2.09l-.88 4.16h-1.18l.83-3.9c.08-.4.1-.76-.11-1.05-.23-.28-.6-.41-1-.41-.83 0-1.73.6-2 1.83l-.73 3.53h-1.16l1.16-5.42zm7.45 0 .14-.7h1.16l-.21.99c.2-.26.81-1.12 2.2-1.12.55 0 2.17.2 1.77 2.09l-.88 4.16h-1.18l.83-3.9c.08-.4.1-.76-.11-1.05-.23-.28-.6-.41-1-.41-.83 0-1.73.6-2 1.83l-.73 3.53h-1.15l1.15-5.42zm7.57 2.57c-.29 1.27.03 2.2 1.29 2.2a1.7 1.7 0 0 0 1.7-1.27H256c-.1.3-.25.8-.78 1.29a3.27 3.27 0 0 1-2.28.81c-1.93 0-2.58-1.2-2.18-3.14.25-1.21.71-2.2 1.83-2.89a3.38 3.38 0 0 1 1.75-.45c2.74 0 2.17 2.43 1.94 3.44h-4.4zm3.4-.81c.14-.59.28-1.81-1.13-1.81-.74 0-1.75.45-2.05 1.8zm6.44-.5c.04-.28.17-1.29-.95-1.29-1.58 0-1.97 1.85-2.07 2.3-.26 1.27-.22 2.43 1 2.43.99 0 1.47-.72 1.62-1.33h1.16a2.98 2.98 0 0 1-2.94 2.2c-.41 0-1.35-.1-1.84-.8-.28-.42-.5-1.07-.23-2.34.53-2.54 2.25-3.3 3.47-3.3.4 0 1.31.08 1.72.75.34.52.27 1.03.22 1.37h-1.16zm2.1-1.99h1.09l.26-1.29 1.23-.36-.36 1.65h1.37l-.18.84h-1.37l-.77 3.67c-.06.3-.17.81.64.81.23 0 .46-.03.56-.06l-.18.89a5.9 5.9 0 0 1-.96.07c-1.06 0-1.5-.3-1.29-1.3l.86-4.1h-1.09l.19-.83zm5.01.02h1.15l-1.3 6.13h-1.16zm.44-2.66h1.38l-.27 1.26h-1.38zm5.62 2.5c2.45 0 2.6 1.93 2.33 3.22-.4 1.8-1.72 3.29-3.8 3.29-2.1 0-2.71-1.41-2.34-3.2.32-1.52 1.41-3.3 3.8-3.3zm-1.27 5.65c.86 0 1.98-.62 2.37-2.47.33-1.52-.2-2.32-1.28-2.32-.73 0-2.01.46-2.43 2.37-.26 1.26.03 2.42 1.34 2.42zm5.91-4.78.15-.7h1.15l-.21.99c.2-.26.81-1.12 2.2-1.12.55 0 2.17.2 1.77 2.09l-.88 4.16h-1.18l.83-3.9c.08-.4.1-.76-.11-1.05-.23-.28-.6-.41-1-.41-.83 0-1.73.6-2 1.83l-.73 3.53h-1.15l1.15-5.42zm7.32 3.6c-.11.46 0 1.11 1.1 1.11.47 0 .85-.08 1.16-.38.16-.16.28-.37.32-.57.13-.6-.28-.7-1.15-.92-1.23-.3-2.23-.55-1.97-1.84.23-1.12 1.37-1.85 2.8-1.85.75 0 1.78.22 2 .96.09.34.03.63-.03.88h-1.18c.23-.92-.54-1-.96-1-.17 0-1.24 0-1.44.87-.1.56.4.69.7.77 1.62.4 1.96.5 2.25.84.26.32.3.74.21 1.14a2.42 2.43 0 0 1-1.16 1.55 3.9 3.9 0 0 1-1.9.42c-1.25 0-2.3-.51-1.96-2h1.2zm5.27.35h1.36l-.32 1.47h-1.36z"
     class="amsLogoSVG gray"
     id="path6"
     style="fill:#98a4ae;stroke:#98a4ae;stroke-width:0.21" />
</svg>
